<svg width="24" height="22" viewBox="0 0 24 22" fill="none" xmlns="http://www.w3.org/2000/svg">
<path d="M4.00488 4.5859V17.4192H20.0049V4.5859H4.00488ZM3.00488 2.75256H21.0049C21.5572 2.75256 22.0049 3.16296 22.0049 3.66923V18.3359C22.0049 18.8422 21.5572 19.2526 21.0049 19.2526H3.00488C2.4526 19.2526 2.00488 18.8422 2.00488 18.3359V3.66923C2.00488 3.16296 2.4526 2.75256 3.00488 2.75256ZM14.7978 8.97938L13.0049 7.3359H18.0049V11.9192L16.212 10.2757L12.348 13.8177L10.2267 11.8732L7.39828 14.4659L5.98407 13.1696L10.2267 9.28041L12.348 11.2249L14.7978 8.97938Z" fill="#53545C"/>
</svg>
